<svg xmlns="http://www.w3.org/2000/svg" xmlns:xlink="http://www.w3.org/1999/xlink" width="837.447" height="1057.482"
  viewBox="0 0 700.447 1257.482">
  <defs>
    <linearGradient id="linear-gradient" x1="0.003" y1="0.5" x2="0.996" y2="0.5" gradientUnits="objectBoundingBox">
      <stop offset="0.2" stop-color="#da21fe" />
      <stop offset="0.79" stop-color="#0af5a7" />
    </linearGradient>
    <linearGradient id="linear-gradient-2" x1="0.003" y1="0.5" x2="0.997" y2="0.5" xlink:href="#linear-gradient" />
  </defs>
  <g id="Group_120" data-name="Group 120" transform="translate(-465.233 62.442)">
    <g id="Line1" transform="matrix(-0.809, -0.588, 0.588, -0.809, 849.433, 649.885)">
      <path id="Path_152" data-name="Path 152"
        d="M4.792,533.151a60.38,60.38,0,0,1,7.678-31.506,73.2,73.2,0,0,1,20.557-22.232c18.7-13.72,41.439-20.9,62.941-28.894q43.9-16.333,88.7-30.085c29.839-9.139,59.916-17.166,90.151-24.94,14.443-3.724,28.862-7.837,42.416-14.149a133.136,133.136,0,0,0,28.084-17.738c17.651-14.4,31.625-33.142,41.288-53.706a180.708,180.708,0,0,0,16.873-69.777c1.191-29.982-6.439-59.328-7.083-89.206-.572-26.631,6.471-52.15,19.517-75.287,12.172-21.581,28.449-40.494,45.465-58.335q6.352-6.67,12.831-13.212c2.152-2.191-1.215-5.558-3.374-3.375-34.73,35.3-70.388,74.636-77.741,125.619-4.407,30.506,2.866,60.638,5.145,90.977a183.26,183.26,0,0,1-9.282,74.366c-7.726,22.105-20.12,42.709-36.731,59.272a133.39,133.39,0,0,1-26.488,20.549c-11.847,6.971-24.773,11.7-37.938,15.531-15.086,4.383-30.363,7.885-45.512,11.91s-30.212,8.281-45.258,12.752q-44.909,13.363-89,29.315c-13.911,5.026-27.742,10.274-41.542,15.57A172.3,172.3,0,0,0,38.95,469.71c-17.468,10.584-32.61,26-37.318,46.489a69.468,69.468,0,0,0-1.6,16.952C.084,536.215,4.848,536.223,4.792,533.151Z"
        transform="translate(0 0)" fill="url(#linear-gradient)" />
    </g>
    <g id="Line2" transform="matrix(0.995, 0.105, -0.105, 0.995, 599.87, 654.763)">
      <path id="Path_151" data-name="Path 151"
        d="M4.669,244.621a63.439,63.439,0,0,1,23.93-25.16c9.331-5.368,19.942-8.234,30.6-9.389,24.728-2.667,49.855,2.808,74.168,6.755q49.257,8,97.982,18.9c32.547,7.287,64.62,16.161,96.9,24.5,15.056,3.889,30.42,7.146,46.016,7.595a142.776,142.776,0,0,0,35.09-3.457c23.856-5.334,46.149-16.56,65.36-31.575a190.188,190.188,0,0,0,49.664-59c14.283-26.315,22.185-55.671,37.449-81.43,13.486-22.809,33.137-40.806,55.954-54.01,21.778-12.638,45.7-21.072,69.689-28.334Q696.2,7.4,704.924,4.918c3.083-.881,1.77-5.692-1.321-4.811-47.969,13.652-98.655,30.179-131.891,69.714C552.6,92.538,542.9,120.407,531.42,147.337c-10.96,25.7-25.177,49.323-45.31,68.916-18.047,17.574-39.884,31.475-63.839,39.377-25.642,8.45-51.874,8.874-78.173,3.257-16.444-3.506-32.572-8.417-48.825-12.7s-32.78-8.392-49.257-12.214q-49.3-11.442-99.211-19.942c-15.389-2.617-30.819-4.985-46.249-7.312a179.8,179.8,0,0,0-32.1-2.26c-21.529.64-43.341,6.98-58.164,23.415A73.368,73.368,0,0,0,.323,242.095c-1.529,2.825,2.775,5.343,4.3,2.493Z"
        transform="translate(0 0)" fill="url(#linear-gradient-2)" />
    </g>
  </g>
</svg>