<svg xmlns="http://www.w3.org/2000/svg" width="12.023" height="10.482" viewBox="0 0 12.023 10.482">
  <g id="Group_4" data-name="Group 4" transform="translate(-831.71 -500.37)">
    <path id="Path_685" data-name="Path 685" d="M337.561,0h-3.277a.453.453,0,0,0,0,.906h2.824V3.731a.453.453,0,1,0,.906,0V.453A.453.453,0,0,0,337.561,0Z" transform="translate(505.72 500.416)" fill="#fff"/>
    <path id="Path_686" data-name="Path 686" d="M205.348.133a.453.453,0,0,0-.641,0L198.243,6.6a.453.453,0,1,0,.641.641L205.348.773A.453.453,0,0,0,205.348.133Z" transform="translate(638.253 500.808)" fill="#fff"/>
    <path id="Path_687" data-name="Path 687" d="M10.029,69.7a.453.453,0,0,0-.453.453v5.03H.906V66.514h5.03a.453.453,0,0,0,0-.906H.453A.453.453,0,0,0,0,66.061v9.576a.453.453,0,0,0,.453.453h9.576a.453.453,0,0,0,.453-.453V70.154A.453.453,0,0,0,10.029,69.7Z" transform="translate(831.71 434.762)" fill="#fff"/>
  </g>
</svg>
